HIERARCHY
ROOT Hips
{
	OFFSET -0.001795 -0.223333 0.028219
	CHANNELS 6 Xposition Yposition Zposition Zrotation Yrotation Xrotation 
	JOINT LeftUpLeg
	{
		OFFSET 0.069520 -0.091406 -0.006815
		CHANNELS 3 Zrotation Yrotation Xrotation
		JOINT LeftLeg
		{
			OFFSET 0.034277 -0.375199 -0.004496
			CHANNELS 3 Zrotation Yrotation Xrotation
			JOINT LeftFoot
			{
				OFFSET -0.013596 -0.397961 -0.043693
				CHANNELS 3 Zrotation Yrotation Xrotation
				JOINT LeftToe
				{
					OFFSET 0.026358 -0.055791 0.119288
					CHANNELS 3 Zrotation Yrotation Xrotation
					End Site
					{
						OFFSET 0.000000 0.000000 0.000000
					}
				}
			}
		}
	}
	JOINT RightUpLeg
	{
		OFFSET -0.067670 -0.090522 -0.004320
		CHANNELS 3 Zrotation Yrotation Xrotation
		JOINT RightLeg
		{
			OFFSET -0.038290 -0.382569 -0.008850
			CHANNELS 3 Zrotation Yrotation Xrotation
			JOINT RightFoot
			{
				OFFSET 0.015774 -0.398415 -0.042312
				CHANNELS 3 Zrotation Yrotation Xrotation
				JOINT RightToe
				{
					OFFSET -0.025372 -0.048144 0.123348
					CHANNELS 3 Zrotation Yrotation Xrotation
					End Site
					{
						OFFSET 0.000000 0.000000 0.000000
					}
				}
			}
		}
	}
	JOINT Spine
	{
		OFFSET -0.002533 0.108963 -0.026696
		CHANNELS 3 Zrotation Yrotation Xrotation
		JOINT Spine1
		{
			OFFSET 0.005487 0.135180 0.001092
			CHANNELS 3 Zrotation Yrotation Xrotation
			JOINT Spine2
			{
				OFFSET 0.001457 0.052922 0.025425
				CHANNELS 3 Zrotation Yrotation Xrotation
				JOINT Neck
				{
					OFFSET -0.002778 0.213870 -0.042857
					CHANNELS 3 Zrotation Yrotation Xrotation
					JOINT Head
					{
						OFFSET 0.005152 0.064970 0.051349
						CHANNELS 3 Zrotation Yrotation Xrotation
						End Site
						{
							OFFSET 0.000000 0.000000 0.000000
						}
					}
				}
				JOINT LeftShoulder
				{
					OFFSET 0.078845 0.121749 -0.034090
					CHANNELS 3 Zrotation Yrotation Xrotation
					JOINT LeftArm
					{
						OFFSET 0.090977 0.030469 -0.008868
						CHANNELS 3 Zrotation Yrotation Xrotation
						JOINT LeftForeArm
						{
							OFFSET 0.259612 -0.012772 -0.027456
							CHANNELS 3 Zrotation Yrotation Xrotation
							JOINT LeftHand
							{
								OFFSET 0.249234 0.008986 -0.001171
								CHANNELS 3 Zrotation Yrotation Xrotation
								End Site
								{
									OFFSET 0.000000 0.000000 0.000000
								}
							}
						}
					}
				}
				JOINT RightShoulder
				{
					OFFSET -0.081759 0.118833 -0.038615
					CHANNELS 3 Zrotation Yrotation Xrotation
					JOINT RightArm
					{
						OFFSET -0.096012 0.032551 -0.009143
						CHANNELS 3 Zrotation Yrotation Xrotation
						JOINT RightForeArm
						{
							OFFSET -0.253742 -0.013329 -0.021401
							CHANNELS 3 Zrotation Yrotation Xrotation
							JOINT RightHand
							{
								OFFSET -0.255298 0.007772 -0.005559
								CHANNELS 3 Zrotation Yrotation Xrotation
								End Site
								{
									OFFSET 0.000000 0.000000 0.000000
								}
							}
						}
					}
				}
			}
		}
	}
}
MOTION
Frames: 13
Frame Time: 0.050000
0.000000 0.932525 0.000000 0.465831 -25.146123 -2.225537 3.057803 -0.112732 -23.127537 -7.562687 4.898429 27.942009 9.417172 18.562813 3.721576 0.000000 0.000000 0.000000 -2.813427 0.094917 3.714943 6.549389 -0.199016 8.086399 -5.210339 -7.370708 -6.314926 0.000000 0.000000 0.000000 2.595570 -0.443314 11.435879 4.097296 0.019273 -29.979934 0.418783 21.888376 31.847127 6.388749 -2.382038 -15.706588 0.000000 0.000000 0.000000 -8.783798 7.080910 -4.128806 -41.337543 -0.733033 -6.515657 9.966261 -13.127503 -0.584713 0.000000 0.000000 0.000000 -0.824171 -8.074251 -2.937743 30.470931 8.593744 -2.927958 -16.014522 12.682037 -0.636973 0.000000 0.000000 0.000000 
-0.011415 0.933122 0.023147 0.791644 -28.142262 -1.847428 2.157432 -0.150756 -23.678600 -7.333000 2.918295 15.780325 9.587569 18.727608 4.059520 0.000000 0.000000 0.000000 -2.659660 0.103155 5.725557 4.715706 -0.042624 6.353634 -3.931616 -4.919091 -4.779260 0.000000 0.000000 0.000000 1.397827 -0.270052 11.830350 4.279146 0.299809 -31.574009 5.385830 28.455320 33.444395 7.255430 -2.400897 -14.283446 0.000000 0.000000 0.000000 -5.946196 0.231207 -1.277111 -39.255301 -4.317952 -5.047911 12.097547 -14.497304 -1.177756 0.000000 0.000000 0.000000 0.631764 -9.768125 -3.769682 23.639762 8.762680 -2.716265 -17.893744 16.042995 -0.878109 0.000000 0.000000 0.000000 
-0.022416 0.932802 0.048958 1.328789 -30.510782 -1.793095 1.028845 -0.218047 -24.709401 -6.443083 1.937848 9.479041 11.123681 19.799923 9.794768 0.000000 0.000000 0.000000 -3.075593 0.231059 6.556644 3.614252 0.107190 7.036939 -4.358791 -5.261626 -5.095741 0.000000 0.000000 0.000000 2.480137 -0.361915 9.853734 0.757614 0.299337 -27.417608 6.689951 29.412132 30.786019 6.509791 -1.933225 -14.506593 0.000000 0.000000 0.000000 -3.871765 2.866856 -1.896023 -34.966742 -9.552359 -2.921824 11.858388 -22.587329 -1.888482 0.000000 0.000000 0.000000 -3.471030 -5.828189 -2.323973 23.094659 10.728483 -1.996695 -21.521077 16.333023 -1.288828 0.000000 0.000000 0.000000 
-0.033504 0.930893 0.078157 3.415049 -29.419570 -2.838433 -1.983864 -1.068488 -24.466955 -4.451660 1.258001 8.494550 10.047332 17.141996 14.462366 0.000000 0.000000 0.000000 -5.142536 0.623738 9.223322 4.498805 0.012207 7.163526 -5.390220 -7.282222 -5.782379 0.000000 0.000000 0.000000 -0.181130 -0.095392 10.533636 0.887007 0.927235 -32.391597 10.844907 31.411890 36.048284 8.650669 -2.537745 -16.994464 0.000000 0.000000 0.000000 0.998699 -4.174270 1.287619 -31.174116 -15.201064 -1.678346 16.696667 -24.229390 -3.473885 0.000000 0.000000 0.000000 -5.405150 -9.896325 -3.971043 22.178385 12.659239 -1.820451 -21.982521 18.940952 -1.327291 0.000000 0.000000 0.000000 
-0.044907 0.928338 0.111248 3.837800 -30.580835 -3.399956 -4.076435 -1.530093 -21.797289 -2.174517 0.649161 7.523854 10.149549 16.787638 16.941876 0.000000 0.000000 0.000000 -6.342606 1.088704 11.992457 4.540694 0.019498 7.326153 -4.503241 -6.830836 -3.431478 0.000000 0.000000 0.000000 -1.593630 0.093545 10.894467 1.767174 0.787412 -32.238767 12.498538 33.582714 35.080996 7.364216 -1.576661 -15.915484 0.000000 0.000000 0.000000 5.950903 -8.417797 3.212378 -27.297546 -18.120974 -1.080455 20.841907 -25.111994 -4.950638 0.000000 0.000000 0.000000 -6.870682 -8.556636 -3.710454 19.563201 13.863628 -1.460045 -24.428767 20.961118 -1.733031 0.000000 0.000000 0.000000 
-0.055311 0.926232 0.148598 4.193701 -28.816074 -2.729280 -5.818733 -1.934839 -21.471091 -2.440030 0.828770 9.734187 10.642751 18.144427 15.078249 0.000000 0.000000 0.000000 -7.255382 1.386263 14.096775 5.552982 -0.109875 7.057305 -3.410546 -6.850109 -0.223767 0.000000 0.000000 0.000000 -3.190955 0.204212 9.395508 4.218674 0.422053 -32.029515 11.726583 33.382960 35.656540 6.080169 -0.451370 -16.553807 0.000000 0.000000 0.000000 9.774828 -9.151016 3.806865 -22.039931 -22.338204 -0.826084 22.663370 -21.803402 -4.882571 0.000000 0.000000 0.000000 -8.858215 -7.379686 -3.559785 18.734153 15.923160 -1.145529 -28.472120 20.900246 -2.006739 0.000000 0.000000 0.000000 
-0.062503 0.924315 0.190026 3.857330 -24.839370 -2.723702 -7.811403 -2.330526 -18.837443 -1.759171 0.584967 10.344497 8.534375 15.858764 11.485317 0.000000 0.000000 0.000000 -6.996040 1.225087 16.519810 6.989516 -0.307014 8.366551 -3.818425 -9.761285 3.227729 0.000000 0.000000 0.000000 -3.695202 0.219090 9.561383 5.252691 0.209634 -31.954040 10.170254 31.437822 35.223090 5.542210 0.130824 -17.158320 0.000000 0.000000 0.000000 14.321997 -10.852197 4.657474 -16.836088 -24.032802 -1.103028 24.032522 -17.798437 -4.514932 0.000000 0.000000 0.000000 -10.432513 -7.401308 -3.802388 17.646258 18.290216 -0.778651 -30.670742 20.407982 -1.966137 0.000000 0.000000 0.000000 
-0.064733 0.924352 0.234328 3.298738 -21.506169 -2.746733 -8.662599 -2.275397 -15.760342 -2.353652 0.620903 9.674761 8.404465 16.318368 9.450987 0.000000 0.000000 0.000000 -7.572657 1.151581 17.165998 9.350878 -0.631339 13.655690 -4.153406 -11.765746 6.271479 0.000000 0.000000 0.000000 -3.366329 0.162004 10.318896 3.922776 0.394782 -32.319653 9.537443 26.550536 34.370171 3.266295 1.240361 -17.557336 0.000000 0.000000 0.000000 15.874039 -7.729137 3.813638 -12.879503 -25.189915 -1.278983 22.954862 -14.852402 -3.442419 0.000000 0.000000 0.000000 -12.636526 -4.087767 -2.640096 15.740206 19.811237 -0.553338 -32.047114 18.014683 -2.042441 0.000000 0.000000 0.000000 
-0.061700 0.926652 0.278556 2.796885 -19.915509 -2.116129 -8.704684 -2.000150 -13.103269 -3.791115 0.839665 7.687176 9.328032 18.333303 8.365542 0.000000 0.000000 0.000000 -9.010130 1.088667 12.718127 10.825979 -0.657100 26.340307 -0.881387 -5.991896 6.846748 0.000000 0.000000 0.000000 -3.084329 0.104600 10.153061 4.448752 0.308761 -32.395168 8.422206 26.199254 34.292526 4.273343 0.806913 -18.650438 0.000000 0.000000 0.000000 17.235674 -6.982378 3.868936 -10.370816 -23.305869 -1.458029 22.414616 -12.081794 -2.906667 0.000000 0.000000 0.000000 -12.210324 -2.674848 -2.343956 13.298986 21.271247 -0.490359 -32.757276 16.156385 -1.701955 0.000000 0.000000 0.000000 
-0.054871 0.928948 0.318774 1.855349 -14.630579 -2.100963 -9.332090 -1.694338 -10.143060 -3.592069 0.639667 6.633268 7.764902 16.023441 7.205024 0.000000 0.000000 0.000000 -9.855095 0.776226 9.209505 13.819405 -2.036485 34.653389 0.008471 -8.083514 17.170576 0.000000 0.000000 0.000000 -2.439567 -0.017576 11.388644 4.645284 0.300024 -33.243338 6.957858 23.758332 33.329393 4.384816 0.650766 -16.961257 0.000000 0.000000 0.000000 16.863957 -9.085315 4.433549 -8.022258 -20.519068 -1.444258 21.427291 -8.796972 -2.267686 0.000000 0.000000 0.000000 -12.194598 -2.594823 -2.500401 12.172726 22.244045 -0.414704 -32.863816 15.058116 -1.330534 0.000000 0.000000 0.000000 
-0.045868 0.930230 0.353683 0.813953 -6.910498 -1.447129 -9.614879 -1.375660 -8.110837 -3.486824 0.466268 5.557807 5.688662 12.522351 4.902244 0.000000 0.000000 0.000000 -10.912729 0.470169 3.809539 18.196767 -5.851244 43.719690 -2.359146 -10.840506 15.984694 0.000000 0.000000 0.000000 -1.443437 -0.225347 11.016414 5.261300 0.138131 -33.864368 3.262396 17.936792 33.080839 4.466788 0.314900 -16.589336 0.000000 0.000000 0.000000 15.986033 -8.430584 4.119470 -7.214492 -18.475392 -1.350521 21.472005 -6.752101 -1.865897 0.000000 0.000000 0.000000 -10.951237 -0.164621 -1.625764 9.767251 22.861515 -0.598298 -33.557895 12.933437 -1.102610 0.000000 0.000000 0.000000 
-0.035225 0.931963 0.384535 -0.097749 -1.008000 -1.238053 -9.677188 -1.105659 -6.694282 -3.335848 0.354390 5.776185 4.306578 9.856828 3.485779 0.000000 0.000000 0.000000 -11.449355 0.263845 -1.836819 18.710995 -8.403615 48.162239 -4.995060 -14.517459 13.007846 0.000000 0.000000 0.000000 -0.704083 -0.366133 10.967407 6.013930 -0.112939 -33.477255 0.751103 14.185023 31.980566 3.573168 0.820069 -16.240394 0.000000 0.000000 0.000000 15.078995 -8.328668 4.077147 -7.271210 -16.307463 -1.213781 21.296083 -6.350493 -1.791740 0.000000 0.000000 0.000000 -10.708661 1.390337 -1.144800 8.910735 22.612182 -0.650506 -33.672721 12.856869 -1.143545 0.000000 0.000000 0.000000 
-0.023487 0.932845 0.412218 -1.606870 4.569130 -1.122790 -8.573240 -0.865093 -5.829996 -3.512537 0.301578 6.038577 3.486650 8.059993 2.377226 0.000000 0.000000 0.000000 -11.070759 0.085218 -6.091125 17.621556 -9.516997 47.643706 -7.265270 -18.104765 5.901759 0.000000 0.000000 0.000000 1.503059 -0.656472 11.080374 6.000902 -0.109401 -34.979227 -1.835844 11.093752 32.784975 3.700503 0.688996 -15.942319 0.000000 0.000000 0.000000 14.193073 -6.787711 3.765348 -7.399572 -15.752664 -1.198754 21.883386 -7.066267 -2.032218 0.000000 0.000000 0.000000 -9.114219 2.933987 -0.537600 7.863397 22.192655 -0.793055 -34.414175 11.683496 -0.916867 0.000000 0.000000 0.000000 
